<svg width="349" height="118" viewBox="0 0 349 118" fill="none" xmlns="http://www.w3.org/2000/svg">
<path fill-rule="evenodd" clip-rule="evenodd" d="M302.941 96.032C302.842 95.1818 302.791 94.3292 302.791 93.48C302.791 87.4 304.871 82.12 308.871 77.8C309.951 76.62 311.101 75.59 312.316 74.7087C311.101 75.59 309.951 76.62 308.871 77.8C304.871 82.12 302.791 87.4 302.791 93.48C302.791 94.3292 302.842 95.1818 302.941 96.032ZM325.031 106.94C319.317 106.94 314.545 103.43 312.848 97.86H348.611V95.16C348.611 89.0409 347.45 84.1709 344.687 79.9398L344.682 79.9316C340.163 73.1111 332.893 69.26 324.871 69.26C318.218 69.26 312.375 71.7512 307.766 76.7859C303.509 81.3857 301.291 87.0292 301.291 93.48C301.291 99.6182 303.755 105.91 308.105 110.434C312.635 115.22 318.312 117.62 325.031 117.62C335.061 117.62 342.929 112.075 347.136 101.977L348.001 99.9H336.147L335.719 100.674C333.507 104.67 329.613 106.94 325.031 106.94ZM332.688 82.3585C334.307 83.6897 335.635 85.5435 336.559 87.9H313.269C315.337 82.7761 319.744 79.78 325.111 79.78C328.11 79.78 330.667 80.6955 332.688 82.3585Z" fill="black"/>
<path fill-rule="evenodd" clip-rule="evenodd" d="M244.332 116.5V113.081C248.103 115.991 252.502 117.46 257.232 117.46C271.114 117.46 281.292 107.014 281.292 93.32C281.292 86.9454 278.911 80.9716 274.638 76.525C270.019 71.6518 264.579 69.42 257.712 69.42C252.627 69.42 248.14 70.9073 244.252 73.9014V56.62H233.492V116.5H244.332ZM256.912 107.1C250.241 107.1 244.012 100.993 244.012 93.8C244.012 85.861 250.187 79.94 256.992 79.94C264.105 79.94 270.212 85.6895 270.212 93.24C270.212 101.387 264.148 107.1 256.912 107.1Z" fill="black"/>
<path fill-rule="evenodd" clip-rule="evenodd" d="M174.439 70.54V73.2327C177.104 70.9425 180.267 69.82 183.979 69.82C187.238 69.82 190.073 70.4128 192.49 71.7858C194.244 72.7822 195.714 74.1536 196.949 75.8956C198.184 74.1958 199.683 72.8383 201.467 71.8407C203.943 70.4561 206.871 69.82 210.219 69.82C215.299 69.82 219.713 71.5938 222.852 74.9326C225.983 78.2642 227.719 83.0185 227.719 88.76V116.5H216.959V89.96C216.959 86.4477 216.144 83.9218 214.856 82.3049C213.604 80.734 211.779 79.86 209.339 79.86C206.155 79.86 204.374 80.8608 203.265 82.6577C202.049 84.6286 201.479 87.8017 201.479 92.52V116.5H190.959V93.32C190.959 88.4203 190.334 85.0202 189.076 82.8803C188.466 81.8431 187.713 81.1125 186.797 80.629C185.872 80.1404 184.694 79.86 183.179 79.86C180.198 79.86 178.274 80.8927 177.005 82.8389C175.655 84.9118 174.919 88.2161 174.919 93V116.5H164.559V70.54H174.439Z" fill="black"/>
<path fill-rule="evenodd" clip-rule="evenodd" d="M110.034 93.32C110.034 86.9594 112.326 80.981 116.609 76.5244C121.227 71.6516 126.668 69.42 133.534 69.42C138.598 69.42 143.075 70.8953 146.914 73.8726V70.54H157.754V116.5H146.914V113.081C143.143 115.991 138.744 117.46 134.014 117.46C120.125 117.46 110.034 107.007 110.034 93.32ZM134.414 107.1C127.168 107.1 121.034 101.377 121.034 93.24C121.034 85.6843 127.067 79.94 134.254 79.94C141.07 79.94 147.314 85.8717 147.314 93.8C147.314 100.993 141.085 107.1 134.414 107.1Z" fill="black"/>
<path fill-rule="evenodd" clip-rule="evenodd" d="M89.8494 72.04H97.1294V72.04H89.8494V72.04ZM98.6294 70.54V72.9696C99.303 72.378 100.021 71.8675 100.79 71.4395C102.712 70.369 104.862 69.8639 107.262 69.8202L108.789 69.7925V80.789L107.404 80.8956C103.978 81.1592 102.042 82.1103 100.896 83.5603C99.7055 85.0662 99.1094 87.4221 99.1094 91.08V116.5H88.3494V70.54H98.6294Z" fill="black"/>
<path fill-rule="evenodd" clip-rule="evenodd" d="M60.2938 117.62C53.5835 117.62 47.9845 115.306 43.4486 110.516C39.0976 105.992 36.6338 99.6989 36.6338 93.56C36.6338 87.1841 38.855 81.5396 43.1131 76.9409L43.1166 76.9372C47.7919 71.9218 53.7855 69.26 60.5338 69.26C70.8929 69.26 79.1217 75.2252 82.6756 85.8022L83.3402 87.78H71.8591L71.4403 86.9669C70.1829 84.5261 68.6178 82.7936 66.755 81.662C64.8917 80.5301 62.6327 79.94 59.8938 79.94C53.2987 79.94 47.6338 85.5685 47.6338 93.48C47.6338 101.368 53.197 107.02 60.2938 107.02C65.1198 107.02 69.173 104.425 71.4199 99.7143L71.8273 98.86H83.3657L82.6701 100.854C80.7948 106.23 77.9426 110.443 74.1359 113.308C70.3211 116.18 65.6528 117.62 60.2938 117.62Z" fill="black"/>
<path fill-rule="evenodd" clip-rule="evenodd" d="M5.63878 85.18C5.55935 84.5605 5.52001 83.9145 5.52001 83.24C5.52001 82.37 5.60625 81.5212 5.77094 80.702C5.60625 81.5212 5.52 82.37 5.52 83.24C5.52 83.9145 5.55935 84.5605 5.63878 85.18ZM21.2396 100.08C20.6 99.2997 19.5551 98.5814 17.9201 97.9116C17.0647 97.5731 16.1825 97.2406 15.3446 96.9247L15.3443 96.9246C14.4361 96.5822 13.5799 96.2595 12.8662 95.97C11.4237 95.3849 10.0876 94.7586 9.0637 93.9319C5.64942 91.2335 4.02 87.7518 4.02 83.24C4.02 75.4578 10.2053 69.18 18.08 69.18C22.0712 69.18 25.4601 70.402 27.9056 72.8243C30.3437 75.2393 31.6839 78.6883 31.898 82.8428L31.9793 84.42H21.5683L21.4642 83.0322C21.3647 81.7061 20.9329 80.8249 20.3677 80.2787C19.8093 79.7392 18.9699 79.38 17.76 79.38C15.8204 79.38 14.38 80.8361 14.38 82.84C14.38 83.7345 14.5567 84.2931 14.7975 84.6887C15.0423 85.0908 15.4333 85.4561 16.0822 85.8322C16.7477 86.218 17.5997 86.5682 18.7042 86.9813C18.9946 87.0899 19.3023 87.2028 19.6245 87.321C20.4898 87.6385 21.4602 87.9946 22.484 88.4101L22.4859 88.4109C25.8673 89.7884 28.4335 91.4899 30.131 93.8687C31.8389 96.262 32.54 99.1612 32.54 102.68C32.54 111.303 25.9931 117.62 17.28 117.62C12.9439 117.62 9.22772 116.075 6.54533 113.155C3.8818 110.255 2.35487 106.131 2.10193 101.156L2.02179 99.58H12.38V101.08C12.38 105.164 14.8489 107.42 17.52 107.42C20.3449 107.42 22.18 105.559 22.18 103C22.18 101.736 21.8499 100.826 21.2396 100.08Z" fill="#FF6E49"/>
<path fill-rule="evenodd" clip-rule="evenodd" d="M171.852 57.081V60.5H182.692V0.619995H171.932V17.9014C168.044 14.9073 163.557 13.42 158.472 13.42C151.605 13.42 146.165 15.6515 141.547 20.524C137.264 24.9806 134.972 30.9591 134.972 37.32C134.972 51.0072 145.062 61.46 158.952 61.46C163.682 61.46 168.081 59.9908 171.852 57.081ZM159.352 51.1C152.105 51.1 145.972 45.3768 145.972 37.24C145.972 29.6843 152.004 23.94 159.192 23.94C166.007 23.94 172.252 29.8717 172.252 37.8C172.252 44.9928 166.022 51.1 159.352 51.1Z" fill="black"/>
<path fill-rule="evenodd" clip-rule="evenodd" d="M123.567 14.54V16.9696C124.241 16.378 124.959 15.8675 125.727 15.4395C127.649 14.369 129.8 13.8639 132.2 13.8202L133.727 13.7925V24.789L132.342 24.8956C128.915 25.1592 126.98 26.1103 125.834 27.5603C124.643 29.0662 124.047 31.4221 124.047 35.08V60.5H113.287V14.54H123.567Z" fill="black"/>
<path fill-rule="evenodd" clip-rule="evenodd" d="M22.7937 60.5L30.4865 35.0438L38.2492 60.5H44.746L60.7507 14.54H49.3774L41.6196 39.3509L34.0715 14.54H27.1315L19.5135 39.3509L11.8256 14.54H0.373016L16.2921 60.5H22.7937Z" fill="black"/>
<path d="M84.5 13L89.8754 20.9564L98.9007 17.6791L98.5728 27.2755L107.801 29.9291L101.895 37.5L107.801 45.0709L98.5728 47.7245L98.9007 57.3209L89.8754 54.0436L84.5 62L79.1246 54.0436L70.0993 57.3209L70.4271 47.7245L61.1991 45.0709L67.105 37.5L61.1991 29.9291L70.4271 27.2755L70.0993 17.6791L79.1246 20.9564L84.5 13Z" fill="#4185F4"/>
<path fill-rule="evenodd" clip-rule="evenodd" d="M287.139 60.9351C286.642 59.6926 286 57.8991 286 56H296C296 55.9756 296 55.9624 296.001 55.9622C296.007 55.9615 296.055 56.3004 296.424 57.2212C296.685 57.8746 296.962 58.4896 297.297 59.2317C297.528 59.7444 297.786 60.3178 298.085 61.0064C299.393 64.0143 301 68.1757 301 73C301 77.6706 299.196 82.5334 297.738 86.4641C297.688 86.5978 297.639 86.7304 297.59 86.8619C295.95 91.2899 294.653 94.9071 294.494 98.2378C294.322 101.862 294.849 105.127 295.485 108.068C295.645 108.807 295.809 109.515 295.972 110.217L295.999 110.332C296.15 110.983 296.305 111.646 296.44 112.275C296.711 113.532 297 115.048 297 116.5H287C287 116.202 286.926 115.593 286.665 114.381C286.547 113.835 286.41 113.246 286.252 112.567L286.232 112.482C286.069 111.782 285.889 111.005 285.711 110.182C284.996 106.873 284.273 102.638 284.506 97.7622C284.745 92.7419 286.594 87.756 288.082 83.7429C288.126 83.6238 288.17 83.5055 288.213 83.3881C289.881 78.8857 291 75.6706 291 73C291 70.3243 290.107 67.7357 288.915 64.9936C288.737 64.5846 288.53 64.1236 288.315 63.6443C287.904 62.7295 287.464 61.7481 287.139 60.9351Z" fill="#3D8C6D"/>
</svg>
